<svg width="81" height="81" viewBox="0 0 81 81" fill="none" xmlns="http://www.w3.org/2000/svg">
<ellipse cx="40.131" cy="40.131" rx="22.1695" ry="34.5844" transform="rotate(45 40.131 40.131)" fill="#007690" fill-opacity="0.3"/>
<path d="M18.9473 42.7741C18.8463 42.6705 18.7582 42.5788 18.6833 42.5C18.7582 42.4212 18.8463 42.3295 18.9473 42.2259C19.3283 41.8349 19.8919 41.2745 20.6187 40.6012C22.073 39.2541 24.1779 37.4575 26.7781 35.6614C31.988 32.0626 39.1374 28.5 47 28.5C54.8626 28.5 62.012 32.0626 67.2219 35.6614C69.8222 37.4575 71.927 39.2541 73.3813 40.6012C74.1081 41.2745 74.6717 41.8349 75.0527 42.2259C75.1537 42.3295 75.2418 42.4212 75.3167 42.5C75.2418 42.5788 75.1537 42.6705 75.0527 42.7741C74.6717 43.1651 74.1081 43.7255 73.3813 44.3988C71.927 45.7459 69.8222 47.5425 67.2219 49.3386C62.012 52.9374 54.8626 56.5 47 56.5C39.1374 56.5 31.988 52.9374 26.7781 49.3386C24.1779 47.5425 22.073 45.7459 20.6187 44.3988C19.8919 43.7255 19.3283 43.1651 18.9473 42.7741Z" stroke="white"/>
<circle cx="47.5" cy="42.5" r="9" stroke="white"/>
<path d="M41 43.5C41 39.3579 44.3579 36 48.5 36" stroke="white"/>
</svg>
