<svg width="86" height="86" viewBox="0 0 86 86" fill="none" xmlns="http://www.w3.org/2000/svg">
<path d="M36.2811 79.5446C54.8095 65.9249 70.1842 54.1624 68.3564 32.8589C66.5645 12.4657 46.8534 12.4657 41.2984 15.379C32.6614 19.9311 27.3215 27.36 36.2452 34.8253C45.169 27.36 39.8291 19.8582 31.192 15.379C25.5295 12.4657 5.89008 12.4657 4.134 32.8589C2.4496 51.941 17 65.5972 27.8232 73.6088" stroke="#907272" stroke-width="1.5" stroke-linecap="round" stroke-linejoin="round"/>
<path d="M72.6658 27.5251L65.3831 27.0049L63.8225 50.4137L67.4639 47.8127L71.6254 39.4896L72.6658 27.5251Z" fill="#DEB3B3"/>
<path d="M50.0278 49.8923C72.5435 61.7702 82.2006 21.5059 81.2033 24.8799C77.3572 27.0377 73.4057 27.0207 66.5528 26.549C52.9833 25.6148 47.2649 36.3141 50.3947 44.5623C51.3396 41.9498 54.5999 36.819 60.0821 37.1964" stroke="#907272" stroke-width="1.5" stroke-linecap="round"/>
</svg>
