<svg width="67" height="69" viewBox="0 0 67 69" fill="none" xmlns="http://www.w3.org/2000/svg">
<path d="M63.4028 31.596C63.4028 41.5797 58.6668 50.4571 51.3159 56.1046C46.1084 60.1055 39.5905 62.4836 32.5151 62.4836C15.4564 62.4836 1.62752 48.6547 1.62752 31.596C1.62752 14.5372 15.4564 0.708333 32.5151 0.708333C49.5739 0.708333 63.4028 14.5372 63.4028 31.596Z" stroke="#515576" stroke-width="1.41667"/>
<path d="M53.1212 54.9496L66.1717 68.0001" stroke="#515576" stroke-width="1.41667" stroke-linecap="round"/>
<circle cx="16.0303" cy="49.4546" r="6.16035" stroke="#515576" stroke-width="1.41667"/>
<mask id="path-4-inside-1_0_214" fill="white">
<path d="M18.7778 49.4546C18.7778 48.9681 18.6486 48.4902 18.4034 48.07C18.1582 47.6497 17.8058 47.3021 17.3822 47.0627C16.9586 46.8233 16.479 46.7007 15.9925 46.7074C15.506 46.7141 15.03 46.8499 14.6132 47.1009L15.1258 47.9523C15.3919 47.7921 15.6957 47.7054 16.0062 47.7011C16.3167 47.6969 16.6228 47.7751 16.8932 47.9279C17.1636 48.0807 17.3885 48.3026 17.545 48.5708C17.7016 48.8391 17.784 49.1441 17.784 49.4546H18.7778Z"/>
</mask>
<path d="M18.7778 49.4546C18.7778 48.9681 18.6486 48.4902 18.4034 48.07C18.1582 47.6497 17.8058 47.3021 17.3822 47.0627C16.9586 46.8233 16.479 46.7007 15.9925 46.7074C15.506 46.7141 15.03 46.8499 14.6132 47.1009L15.1258 47.9523C15.3919 47.7921 15.6957 47.7054 16.0062 47.7011C16.3167 47.6969 16.6228 47.7751 16.8932 47.9279C17.1636 48.0807 17.3885 48.3026 17.545 48.5708C17.7016 48.8391 17.784 49.1441 17.784 49.4546H18.7778Z" stroke="#515576" stroke-width="2.83333" mask="url(#path-4-inside-1_0_214)"/>
<circle cx="17.2323" cy="31.4242" r="6.16035" stroke="#515576" stroke-width="1.41667"/>
<mask id="path-6-inside-2_0_214" fill="white">
<path d="M19.9798 31.4242C19.9798 30.9377 19.8506 30.4598 19.6054 30.0396C19.3602 29.6193 19.0078 29.2717 18.5842 29.0323C18.1606 28.7929 17.681 28.6703 17.1945 28.677C16.708 28.6837 16.232 28.8195 15.8151 29.0705L16.3278 29.9219C16.5938 29.7617 16.8976 29.675 17.2082 29.6707C17.5187 29.6665 17.8248 29.7447 18.0952 29.8975C18.3656 30.0503 18.5905 30.2722 18.747 30.5404C18.9035 30.8087 18.986 31.1137 18.986 31.4242H19.9798Z"/>
</mask>
<path d="M19.9798 31.4242C19.9798 30.9377 19.8506 30.4598 19.6054 30.0396C19.3602 29.6193 19.0078 29.2717 18.5842 29.0323C18.1606 28.7929 17.681 28.6703 17.1945 28.677C16.708 28.6837 16.232 28.8195 15.8151 29.0705L16.3278 29.9219C16.5938 29.7617 16.8976 29.675 17.2082 29.6707C17.5187 29.6665 17.8248 29.7447 18.0952 29.8975C18.3656 30.0503 18.5905 30.2722 18.747 30.5404C18.9035 30.8087 18.986 31.1137 18.986 31.4242H19.9798Z" stroke="#515576" stroke-width="2.83333" mask="url(#path-6-inside-2_0_214)"/>
<circle cx="20.0656" cy="15.3687" r="6.16035" stroke="#515576" stroke-width="1.41667"/>
<mask id="path-8-inside-3_0_214" fill="white">
<path d="M22.8131 15.3687C22.8131 14.8821 22.6839 14.4043 22.4387 13.984C22.1935 13.5638 21.841 13.2162 21.4174 12.9768C20.9939 12.7374 20.5143 12.6148 20.0278 12.6215C19.5413 12.6282 19.0652 12.764 18.6484 13.0149L19.161 13.8663C19.4271 13.7061 19.7309 13.6195 20.0415 13.6152C20.352 13.6109 20.6581 13.6892 20.9285 13.842C21.1988 13.9948 21.4238 14.2167 21.5803 14.4849C21.7368 14.7531 21.8193 15.0581 21.8193 15.3687H22.8131Z"/>
</mask>
<path d="M22.8131 15.3687C22.8131 14.8821 22.6839 14.4043 22.4387 13.984C22.1935 13.5638 21.841 13.2162 21.4174 12.9768C20.9939 12.7374 20.5143 12.6148 20.0278 12.6215C19.5413 12.6282 19.0652 12.764 18.6484 13.0149L19.161 13.8663C19.4271 13.7061 19.7309 13.6195 20.0415 13.6152C20.352 13.6109 20.6581 13.6892 20.9285 13.842C21.1988 13.9948 21.4238 14.2167 21.5803 14.4849C21.7368 14.7531 21.8193 15.0581 21.8193 15.3687H22.8131Z" stroke="#515576" stroke-width="2.83333" mask="url(#path-8-inside-3_0_214)"/>
<circle cx="36.1212" cy="7.81314" r="6.16035" stroke="#515576" stroke-width="1.41667"/>
<mask id="path-10-inside-4_0_214" fill="white">
<path d="M38.8687 7.81315C38.8687 7.32659 38.7395 6.84875 38.4942 6.4285C38.249 6.00825 37.8966 5.66065 37.473 5.42125C37.0494 5.18185 36.5699 5.05923 36.0833 5.06593C35.5968 5.07264 35.1208 5.20842 34.704 5.4594L35.2166 6.3108C35.4827 6.1506 35.7865 6.06393 36.097 6.05966C36.4076 6.05538 36.7137 6.13364 36.984 6.28645C37.2544 6.43925 37.4793 6.66111 37.6359 6.92935C37.7924 7.19759 37.8749 7.50259 37.8749 7.81315H38.8687Z"/>
</mask>
<path d="M38.8687 7.81315C38.8687 7.32659 38.7395 6.84875 38.4942 6.4285C38.249 6.00825 37.8966 5.66065 37.473 5.42125C37.0494 5.18185 36.5699 5.05923 36.0833 5.06593C35.5968 5.07264 35.1208 5.20842 34.704 5.4594L35.2166 6.3108C35.4827 6.1506 35.7865 6.06393 36.097 6.05966C36.4076 6.05538 36.7137 6.13364 36.984 6.28645C37.2544 6.43925 37.4793 6.66111 37.6359 6.92935C37.7924 7.19759 37.8749 7.50259 37.8749 7.81315H38.8687Z" stroke="#515576" stroke-width="2.83333" mask="url(#path-10-inside-4_0_214)"/>
<circle cx="50.2879" cy="24.8131" r="6.16035" stroke="#515576" stroke-width="1.41667"/>
<mask id="path-12-inside-5_0_214" fill="white">
<path d="M53.0354 24.8131C53.0354 24.3266 52.9061 23.8488 52.6609 23.4285C52.4157 23.0082 52.0633 22.6606 51.6397 22.4212C51.2161 22.1818 50.7365 22.0592 50.25 22.0659C49.7635 22.0726 49.2875 22.2084 48.8707 22.4594L49.3833 23.3108C49.6494 23.1506 49.9532 23.0639 50.2637 23.0597C50.5743 23.0554 50.8804 23.1336 51.1507 23.2864C51.4211 23.4393 51.646 23.6611 51.8025 23.9294C51.9591 24.1976 52.0415 24.5026 52.0415 24.8131H53.0354Z"/>
</mask>
<path d="M53.0354 24.8131C53.0354 24.3266 52.9061 23.8488 52.6609 23.4285C52.4157 23.0082 52.0633 22.6606 51.6397 22.4212C51.2161 22.1818 50.7365 22.0592 50.25 22.0659C49.7635 22.0726 49.2875 22.2084 48.8707 22.4594L49.3833 23.3108C49.6494 23.1506 49.9532 23.0639 50.2637 23.0597C50.5743 23.0554 50.8804 23.1336 51.1507 23.2864C51.4211 23.4393 51.646 23.6611 51.8025 23.9294C51.9591 24.1976 52.0415 24.5026 52.0415 24.8131H53.0354Z" stroke="#515576" stroke-width="2.83333" mask="url(#path-12-inside-5_0_214)"/>
<circle cx="34.2323" cy="24.8131" r="6.16035" stroke="#515576" stroke-width="1.41667"/>
<mask id="path-14-inside-6_0_214" fill="white">
<path d="M36.9798 24.8131C36.9798 24.3266 36.8506 23.8488 36.6054 23.4285C36.3602 23.0082 36.0078 22.6606 35.5842 22.4212C35.1606 22.1818 34.681 22.0592 34.1945 22.0659C33.708 22.0726 33.232 22.2084 32.8151 22.4594L33.3278 23.3108C33.5938 23.1506 33.8976 23.0639 34.2082 23.0597C34.5187 23.0554 34.8248 23.1336 35.0952 23.2864C35.3656 23.4393 35.5905 23.6611 35.747 23.9294C35.9035 24.1976 35.986 24.5026 35.986 24.8131H36.9798Z"/>
</mask>
<path d="M36.9798 24.8131C36.9798 24.3266 36.8506 23.8488 36.6054 23.4285C36.3602 23.0082 36.0078 22.6606 35.5842 22.4212C35.1606 22.1818 34.681 22.0592 34.1945 22.0659C33.708 22.0726 33.232 22.2084 32.8151 22.4594L33.3278 23.3108C33.5938 23.1506 33.8976 23.0639 34.2082 23.0597C34.5187 23.0554 34.8248 23.1336 35.0952 23.2864C35.3656 23.4393 35.5905 23.6611 35.747 23.9294C35.9035 24.1976 35.986 24.5026 35.986 24.8131H36.9798Z" stroke="#515576" stroke-width="2.83333" mask="url(#path-14-inside-6_0_214)"/>
<circle cx="31.399" cy="40.8687" r="6.16035" stroke="#515576" stroke-width="1.41667"/>
<mask id="path-16-inside-7_0_214" fill="white">
<path d="M34.1465 40.8687C34.1465 40.3821 34.0173 39.9043 33.7721 39.484C33.5269 39.0638 33.1744 38.7162 32.7509 38.4768C32.3273 38.2374 31.8477 38.1148 31.3612 38.1215C30.8747 38.1282 30.3986 38.264 29.9818 38.5149L30.4944 39.3663C30.7605 39.2061 31.0643 39.1195 31.3749 39.1152C31.6854 39.1109 31.9915 39.1892 32.2619 39.342C32.5322 39.4948 32.7572 39.7167 32.9137 39.9849C33.0702 40.2531 33.1527 40.5581 33.1527 40.8687H34.1465Z"/>
</mask>
<path d="M34.1465 40.8687C34.1465 40.3821 34.0173 39.9043 33.7721 39.484C33.5269 39.0638 33.1744 38.7162 32.7509 38.4768C32.3273 38.2374 31.8477 38.1148 31.3612 38.1215C30.8747 38.1282 30.3986 38.264 29.9818 38.5149L30.4944 39.3663C30.7605 39.2061 31.0643 39.1195 31.3749 39.1152C31.6854 39.1109 31.9915 39.1892 32.2619 39.342C32.5322 39.4948 32.7572 39.7167 32.9137 39.9849C33.0702 40.2531 33.1527 40.5581 33.1527 40.8687H34.1465Z" stroke="#515576" stroke-width="2.83333" mask="url(#path-16-inside-7_0_214)"/>
</svg>
