<svg width="120" height="100" viewBox="0 0 120 100" fill="none" xmlns="http://www.w3.org/2000/svg">
<path fill-rule="evenodd" clip-rule="evenodd" d="M75.7529 61.8719L75.7323 49.7221C77.2799 50.1151 78.6655 51.1274 79.4979 52.6419C80.1084 53.7509 80.3357 54.9691 80.2238 56.1425C81.4304 54.0946 81.5628 51.4854 80.3339 49.2522C79.8183 48.316 79.0486 47.5614 78.2359 46.9805C79.5946 46.5034 80.8405 45.782 81.9191 44.8708C82.2986 48.2775 85.1378 50.9869 88.6286 51.0477L88.6492 51.0674C86.6227 50.0739 85.2398 47.9615 85.2819 45.5412C85.3392 42.2133 88.0629 39.563 91.3657 39.6212C92.6224 39.6436 93.7833 40.0544 94.7366 40.7401C93.5792 38.6626 91.4042 37.2421 88.8711 37.1973C87.8185 37.1786 86.8393 37.4542 85.9416 37.8651C86.0588 37.1973 86.1179 36.5126 86.1179 35.8136C86.1179 35.1503 86.0615 34.4987 85.9604 33.8641C86.8116 34.2454 87.7765 34.3922 88.7682 34.3922C91.3031 34.3922 93.504 33.0111 94.6945 30.9542C93.7332 31.6228 92.5669 32.0149 91.3066 32.0149C88.0047 32.0149 85.3275 29.3162 85.3275 25.9892C85.3275 23.5671 86.7453 21.4789 88.7906 20.5221L88.7682 20.5409C85.2067 20.5409 82.3362 23.2798 81.9889 26.7778C80.9014 25.8362 79.6447 25.0932 78.2726 24.6054C81.1153 22.5969 82.0525 18.7087 80.3321 15.5813L80.3375 15.5526C80.4968 17.819 79.3744 20.0817 77.2728 21.2552C76.776 21.5317 76.2783 21.7072 75.752 21.8316V7.01542L74.3611 0.566406L72.9433 7.01542L72.9361 7.00468V21.8334L72.8833 21.8209C71.3483 21.4243 69.9707 20.4147 69.1419 18.9065C68.5315 17.7975 68.3041 16.5802 68.416 15.4067C67.2094 17.4538 67.077 20.0629 68.3059 22.2961C68.8429 23.2691 69.5957 24.0675 70.4505 24.6565C69.0837 25.1407 67.8315 25.8711 66.7511 26.7948C66.4065 23.2933 63.494 20.54 59.9271 20.54L59.9074 20.5212C61.9544 21.478 63.3705 23.5663 63.3705 25.9883C63.3705 29.3162 60.6933 32.014 57.3896 32.014C56.1329 32.014 54.9666 31.6219 54.0008 30.9533C55.1939 33.0102 57.394 34.3913 59.9271 34.3913C60.9215 34.3913 61.9124 34.1908 62.7654 33.8068C62.6553 34.4584 62.5962 35.1288 62.5962 35.8127C62.5962 36.5135 62.6571 37.1991 62.7743 37.8669C61.8811 37.4623 60.8732 37.1777 59.8295 37.1965C57.2956 37.2412 55.1179 38.6617 53.9641 40.7392C54.9138 40.0535 56.0756 39.6418 57.3323 39.6203C60.6351 39.563 63.3579 42.2124 63.4161 45.5403C63.4582 47.9615 62.0771 50.073 60.0461 51.0665L60.0685 51.0468C63.5817 50.9851 66.4227 48.2873 66.7753 44.852C67.8467 45.7623 69.0828 46.482 70.429 46.9626C67.5236 48.9542 66.5703 52.8092 68.3068 55.9662L68.3014 55.9948C68.1421 53.7285 69.2645 51.4657 71.3662 50.2932C71.8799 50.0068 72.417 49.8045 72.9603 49.681L72.9343 49.6783V62.1467L63.3087 63.0865V64.4085L72.9415 65.7986V66.5764L75.7493 65.7986V65.1094L83.8471 62.4232V61.1003L75.7305 61.8853L75.7529 61.8719Z" fill="#144A92"/>
<path d="M72.9227 67.0445V68.32L75.7251 67.5896V66.3132L72.9227 67.0445Z" fill="#144A92"/>
<path d="M72.9227 68.7765V70.0538L75.7251 69.3207V68.0461L72.9227 68.7765Z" fill="#144A92"/>
<path d="M72.9227 70.5093V71.7848L75.7251 71.0535V69.7771L72.9227 70.5093Z" fill="#144A92"/>
<path d="M72.9227 73.9732V75.2496L75.7251 74.5174V73.2419L72.9227 73.9732Z" fill="#144A92"/>
<path d="M72.9227 72.2414V73.5178L75.7251 72.7865V71.5093L72.9227 72.2414Z" fill="#144A92"/>
<path fill-rule="evenodd" clip-rule="evenodd" d="M77.527 75.8922C77.2845 77.4228 75.9427 78.6159 74.3468 78.6159C73.3291 78.6159 72.4287 78.1362 71.8344 77.3969L72.9022 75.7884L75.7503 75.0491L77.553 75.8529L77.527 75.8922Z" fill="#144A92"/>
<path d="M57.3779 18.9987C86.5985 5.76504 110.288 11.353 110.288 31.4814C110.288 51.609 86.5985 78.6537 57.3779 91.8874C28.1564 105.122 4.46643 99.5331 4.46643 79.4064C4.46554 59.2789 28.1555 32.2333 57.3779 18.9987Z" fill="#144A92"/>
<path fill-rule="evenodd" clip-rule="evenodd" d="M75.7529 61.8719L75.7323 49.7221C77.2799 50.1151 78.6655 51.1274 79.4979 52.6419C80.1084 53.7509 80.3357 54.9691 80.2238 56.1425C81.4304 54.0946 81.5628 51.4854 80.3339 49.2522C79.8183 48.316 79.0486 47.5614 78.2359 46.9805C79.5946 46.5034 80.8405 45.782 81.9191 44.8708C82.2986 48.2775 85.1378 50.9869 88.6286 51.0477L88.6492 51.0674C86.6227 50.0739 85.2398 47.9615 85.2819 45.5412C85.3392 42.2133 88.0629 39.563 91.3657 39.6212C92.6224 39.6436 93.7833 40.0544 94.7366 40.7401C93.5792 38.6626 91.4042 37.2421 88.8711 37.1973C87.8185 37.1786 86.8393 37.4542 85.9416 37.8651C86.0588 37.1973 86.1179 36.5126 86.1179 35.8136C86.1179 35.1503 86.0615 34.4987 85.9604 33.8641C86.8116 34.2454 87.7765 34.3922 88.7682 34.3922C91.3031 34.3922 93.504 33.0111 94.6945 30.9542C93.7332 31.6228 92.5669 32.0149 91.3066 32.0149C88.0047 32.0149 85.3275 29.3162 85.3275 25.9892C85.3275 23.5671 86.7453 21.4789 88.7906 20.5221L88.7682 20.5409C85.2067 20.5409 82.3362 23.2798 81.9889 26.7778C80.9014 25.8362 79.6447 25.0932 78.2726 24.6054C81.1153 22.5969 82.0525 18.7087 80.3321 15.5813L80.3375 15.5526C80.4968 17.819 79.3744 20.0817 77.2728 21.2552C76.776 21.5317 76.2783 21.7072 75.752 21.8316V7.01542L74.3611 0.566406L72.9433 7.01542L72.9361 7.00468V21.8334L72.8833 21.8209C71.3483 21.4243 69.9707 20.4147 69.1419 18.9065C68.5315 17.7975 68.3041 16.5802 68.416 15.4067C67.2094 17.4538 67.077 20.0629 68.3059 22.2961C68.8429 23.2691 69.5957 24.0675 70.4505 24.6565C69.0837 25.1407 67.8315 25.8711 66.7511 26.7948C66.4065 23.2933 63.494 20.54 59.9271 20.54L59.9074 20.5212C61.9544 21.478 63.3705 23.5663 63.3705 25.9883C63.3705 29.3162 60.6933 32.014 57.3896 32.014C56.1329 32.014 54.9666 31.6219 54.0008 30.9533C55.1939 33.0102 57.394 34.3913 59.9271 34.3913C60.9215 34.3913 61.9124 34.1908 62.7654 33.8068C62.6553 34.4584 62.5962 35.1288 62.5962 35.8127C62.5962 36.5135 62.6571 37.1991 62.7743 37.8669C61.8811 37.4623 60.8732 37.1777 59.8295 37.1965C57.2956 37.2412 55.1179 38.6617 53.9641 40.7392C54.9138 40.0535 56.0756 39.6418 57.3323 39.6203C60.6351 39.563 63.3579 42.2124 63.4161 45.5403C63.4582 47.9615 62.0771 50.073 60.0461 51.0665L60.0685 51.0468C63.5817 50.9851 66.4227 48.2873 66.7753 44.852C67.8467 45.7623 69.0828 46.482 70.429 46.9626C67.5236 48.9542 66.5703 52.8092 68.3068 55.9662L68.3014 55.9948C68.1421 53.7285 69.2645 51.4657 71.3662 50.2932C71.8799 50.0068 72.417 49.8045 72.9603 49.681L72.9343 49.6783V62.1467L63.3087 63.0865V64.4085L72.9415 65.7986V66.5764L75.7493 65.7986V65.1094L83.8471 62.4232V61.1003L75.7305 61.8853L75.7529 61.8719Z" fill="white"/>
<path fill-rule="evenodd" clip-rule="evenodd" d="M72.9226 67.0445V68.32L75.7251 67.5896V66.3132L72.9226 67.0445Z" fill="white"/>
<path fill-rule="evenodd" clip-rule="evenodd" d="M72.9226 68.7765V70.0538L75.7251 69.3207V68.0461L72.9226 68.7765Z" fill="white"/>
<path fill-rule="evenodd" clip-rule="evenodd" d="M72.9226 70.5093V71.7848L75.7251 71.0535V69.7771L72.9226 70.5093Z" fill="white"/>
<path fill-rule="evenodd" clip-rule="evenodd" d="M72.9226 73.9732V75.2496L75.7251 74.5174V73.2419L72.9226 73.9732Z" fill="white"/>
<path fill-rule="evenodd" clip-rule="evenodd" d="M72.9226 72.2414V73.5178L75.7251 72.7865V71.5093L72.9226 72.2414Z" fill="white"/>
<path fill-rule="evenodd" clip-rule="evenodd" d="M77.5269 75.8922C77.2843 77.4228 75.9426 78.6159 74.3467 78.6159C73.329 78.6159 72.4286 78.1362 71.8342 77.3969L72.9021 75.7884L75.7502 75.0491L77.5529 75.8529L77.5269 75.8922Z" fill="white"/>
<path fill-rule="evenodd" clip-rule="evenodd" d="M27.0787 86.3843V76.2109C27.0787 75.3785 26.6187 74.9712 26.1604 74.9712C25.6878 74.9712 25.217 75.3955 25.217 76.2109V88.2595C26.5166 88.2595 27.0787 87.2767 27.0787 86.3843Z" fill="white"/>
<path fill-rule="evenodd" clip-rule="evenodd" d="M35.5926 78.6895C35.5926 76.3319 34.3691 75.0009 32.5825 75.0009C32.2245 75.0009 31.3974 75.1226 31 75.5755C31.1021 75.8933 31.461 76.2576 31.8924 76.2576C31.9577 76.2576 32.0222 76.2576 32.0848 76.2415C32.1484 76.2253 32.2119 76.2253 32.263 76.2253C32.9531 76.2253 33.653 77.0712 33.653 78.8551C33.653 81.0167 32.6219 82.8623 31.2166 82.8623C31.1289 82.8623 31.0287 82.8471 30.9383 82.8319L30.2365 74.8953C29.1535 74.9561 28.5672 75.8637 28.5672 76.7704C28.5672 76.8465 28.5672 76.9369 28.5797 77.013L29.396 83.9516C29.8418 84.0107 30.2634 84.0429 30.6447 84.0429C34.1641 84.042 35.5926 81.4857 35.5926 78.6895Z" fill="white"/>
<path fill-rule="evenodd" clip-rule="evenodd" d="M42.5179 82.2734V79.1594C42.5179 76.4983 40.8477 74.957 38.5805 74.957C37.791 74.957 36.998 75.1826 36.4761 75.5003C36.6041 75.9541 37.0615 76.2871 37.4589 76.2871C37.5082 76.2871 37.5475 76.2871 37.5977 76.271C37.791 76.2254 38.1347 76.135 38.2994 76.135C39.4209 76.135 40.6302 76.9978 40.6302 79.0833V84.1781C41.6783 84.1781 42.5179 83.7243 42.5179 82.2734Z" fill="white"/>
<path fill-rule="evenodd" clip-rule="evenodd" d="M51.142 79.5209C51.142 77.0415 49.9963 75.1377 47.8409 75.1377H43.7236C43.7236 75.7893 44.1067 76.3469 44.7565 76.3469H45.3419C44.564 76.756 43.9402 77.9804 43.9402 79.5826C43.9402 82.0915 45.3669 84.1788 47.5088 84.1788C49.4225 84.178 51.142 82.2875 51.142 79.5209ZM49.2059 79.5665C49.2059 81.6377 48.326 83.0144 47.5088 83.0144C46.5654 83.0144 45.8001 81.593 45.8001 79.5522C45.8001 77.7227 46.5287 76.2718 47.4704 76.2718C48.4012 76.2709 49.2059 77.6627 49.2059 79.5665Z" fill="white"/>
<path fill-rule="evenodd" clip-rule="evenodd" d="M59.0777 82.6976H58.6812C58.1719 82.6976 58.0833 82.3181 58.0833 81.9395V79.0072C58.0833 76.3328 56.4507 74.957 54.1441 74.957C53.3519 74.957 52.5625 75.1826 52.0406 75.5003C52.1937 76.0607 52.4989 76.271 52.9196 76.271C53.0082 76.271 53.0977 76.2567 53.1998 76.2415C53.3904 76.211 53.633 76.135 53.8755 76.135C55.2522 76.135 56.1965 77.1947 56.1965 79.0833V82.712H52.8936C52.3199 82.712 51.9386 83.1667 51.9386 83.8764H58.1719C58.7582 83.8756 59.0777 83.3609 59.0777 82.6976Z" fill="white"/>
<path fill-rule="evenodd" clip-rule="evenodd" d="M18.9505 69.7559V66.4915C18.9505 64.2243 17.2687 62.4404 14.8207 62.4404C13.8513 62.4404 12.9589 62.6973 12.3977 63.0294C12.5132 63.4384 12.8954 63.8162 13.2776 63.8162C13.3411 63.8162 13.4047 63.8162 13.4575 63.8001C13.7887 63.6944 14.0921 63.6183 14.4385 63.6183C16.2349 63.6183 17.0637 64.7381 17.0637 66.8227V71.6606C18.0582 71.6606 18.9505 71.1611 18.9505 69.7559ZM14.5137 69.8167V67.5039C14.5137 66.7475 14.0554 66.3698 13.5971 66.3698C13.1272 66.3698 12.6537 66.7618 12.6537 67.5039V71.6606C13.6991 71.6606 14.5137 71.1611 14.5137 69.8167Z" fill="white"/>
<path fill-rule="evenodd" clip-rule="evenodd" d="M27.6748 66.7922C27.6748 64.2377 26.2973 62.5451 24.4481 62.5451C23.2505 62.5451 22.6391 62.9076 22.0269 63.9199C21.5292 63.331 20.6619 62.6212 20.3576 62.469C20.2421 62.6212 20.1401 62.8467 20.1401 63.1349C20.1401 63.3462 20.192 63.6031 20.3576 63.8904L20.6252 64.3746C20.8302 64.7523 20.9304 64.9636 20.9304 65.3869C20.9304 65.5078 20.9179 65.6743 20.9063 65.8551L20.2162 71.5245C20.294 71.5397 20.3719 71.5397 20.4453 71.5397C21.2491 71.5397 22.1298 70.9051 22.256 69.831L22.7779 65.4782C22.8951 64.4802 23.3534 63.7087 24.0793 63.7087C24.9959 63.7087 25.686 64.7219 25.686 66.8226C25.686 69.2581 24.5626 70.4065 23.6336 70.4065C22.9193 70.4065 22.717 70.6034 22.4852 71.1924C22.6517 71.3276 23.1627 71.5549 23.672 71.5549C25.7611 71.5549 27.6748 69.8614 27.6748 66.7922Z" fill="white"/>
<path fill-rule="evenodd" clip-rule="evenodd" d="M35.65 69.8167V66.6418C35.65 63.8904 33.8912 62.4395 31.5837 62.4395C30.4881 62.4395 29.6574 62.7116 29.1356 62.9989V71.6462C30.2187 71.6462 30.9965 71.1915 30.9965 69.8167V63.7087C31.0985 63.6639 31.239 63.6174 31.393 63.6174C32.2979 63.6174 33.7623 64.4337 33.7623 66.5201V71.6596C34.5669 71.6605 35.65 71.1611 35.65 69.8167Z" fill="white"/>
<path fill-rule="evenodd" clip-rule="evenodd" d="M42.8168 65.0853C42.8168 63.4071 41.9611 62.6212 40.7635 62.6212H38.7353V59.9592C37.8187 59.9592 36.8735 60.7612 36.8735 61.8944V63.8152H39.309C39.8452 63.8152 40.8638 63.8904 40.8638 65.5391C40.8638 67.8359 39.7056 69.4837 38.7353 70.0736C38.1114 70.4513 37.7158 70.8899 37.7158 71.7205C39.6939 71.4636 42.8168 69.166 42.8168 65.0853Z" fill="white"/>
<path fill-rule="evenodd" clip-rule="evenodd" d="M51.5465 66.7922C51.5465 64.2377 50.1699 62.5451 48.3216 62.5451C47.1222 62.5451 46.5108 62.9076 45.8986 63.9199C45.4027 63.331 44.5354 62.6212 44.2284 62.469C44.1138 62.6212 44.0118 62.8467 44.0118 63.1349C44.0118 63.3462 44.0628 63.6031 44.2284 63.8904L44.4969 64.3746C44.7001 64.7523 44.8021 64.9636 44.8021 65.3869C44.8021 65.5078 44.7896 65.6743 44.778 65.8551L44.0896 71.5245C44.1648 71.5397 44.2409 71.5397 44.3188 71.5397C45.1208 71.5397 46.0015 70.9051 46.1277 69.831L46.6514 65.4782C46.7659 64.4802 47.2251 63.7087 47.951 63.7087C48.8693 63.7087 49.5577 64.7219 49.5577 66.8226C49.5577 69.2581 48.4361 70.4065 47.5044 70.4065C46.7901 70.4065 46.586 70.6034 46.3569 71.1924C46.5234 71.3276 47.0327 71.5549 47.5437 71.5549C49.6355 71.5549 51.5465 69.8614 51.5465 66.7922Z" fill="white"/>
<path fill-rule="evenodd" clip-rule="evenodd" d="M58.6945 65.0853C58.6945 63.4071 57.8397 62.6212 56.6421 62.6212H54.6157V59.9592C53.6973 59.9592 52.7539 60.7612 52.7539 61.8944V63.8152H55.1894C55.7238 63.8152 56.7442 63.8904 56.7442 65.5391C56.7442 67.8359 55.5814 69.4837 54.6157 70.0736C53.99 70.4513 53.5944 70.8899 53.5944 71.7205C55.5698 71.4636 58.6945 69.166 58.6945 65.0853Z" fill="white"/>
<path fill-rule="evenodd" clip-rule="evenodd" d="M27.0626 57.2381V53.9738C27.0626 51.7066 25.3799 49.9236 22.9327 49.9236C21.9625 49.9236 21.071 50.1796 20.5098 50.5134C20.6243 50.9216 21.0074 51.2984 21.3896 51.2984C21.4523 51.2984 21.5167 51.2984 21.5677 51.2823C21.8989 51.1776 22.2041 51.1015 22.5496 51.1015C24.3487 51.1015 25.1758 52.2195 25.1758 54.3068V59.1437C26.1702 59.1437 27.0626 58.6452 27.0626 57.2381ZM22.6257 57.2999V54.987C22.6257 54.2307 22.1674 53.853 21.7092 53.853C21.2366 53.853 20.7631 54.245 20.7631 54.987V59.1446C21.8112 59.1437 22.6257 58.6452 22.6257 57.2999Z" fill="white"/>
<path fill-rule="evenodd" clip-rule="evenodd" d="M34.7531 50.1045H27.9201C27.9201 50.5422 28.2128 51.2824 28.8635 51.2824H31.9354C31.4377 51.5393 30.9025 52.2043 30.9025 52.9446V59.1439C31.8208 59.1439 32.7401 58.4788 32.7401 57.2544V52.659C32.7401 51.7666 33.338 51.2824 33.7712 51.2824H33.8616C34.4586 51.2824 34.7531 50.7096 34.7531 50.1045Z" fill="white"/>
<path fill-rule="evenodd" clip-rule="evenodd" d="M37.765 57.2704V51.1777C37.765 50.3461 37.3067 49.938 36.8493 49.938C36.3785 49.938 35.905 50.3614 35.905 51.1777V59.1582C37.2065 59.1582 37.765 58.1763 37.765 57.2704Z" fill="white"/>
<path fill-rule="evenodd" clip-rule="evenodd" d="M43.2214 57.5112C43.2214 57.2248 43.1704 56.9357 43.0683 56.6788C42.9385 56.3619 42.8123 55.6056 42.8123 55.1071V52.719C42.8123 50.9208 41.6004 49.9971 40.2623 49.9971C40.0841 49.9971 39.4352 50.057 39.2186 50.1644C39.2678 50.6782 39.6885 51.1007 40.0457 51.1007C40.5174 51.1007 40.9765 51.6906 40.9765 52.6429V54.7293C40.9765 56.165 40.2748 57.6177 39.3824 57.6929C38.8606 57.7386 38.6941 58.2362 38.6941 58.4788C38.6941 58.5083 38.7066 58.5244 38.7066 58.5388C38.7603 58.9317 39.0772 59.1438 39.3967 59.1438C39.4361 59.1438 39.4603 59.1438 39.4853 59.1438C40.3169 59.0373 40.9139 58.4027 41.3086 57.2239C41.4751 57.7976 41.9844 58.8413 42.2636 59.1573C42.8902 58.9326 43.2214 58.2371 43.2214 57.5112Z" fill="white"/>
<path fill-rule="evenodd" clip-rule="evenodd" d="M50.9083 57.8889C50.9083 57.5273 50.7937 57.1496 50.4867 56.7862L49.3652 55.44C50.22 54.8967 50.8179 54.1242 50.8179 52.4012V49.8923C50.1663 49.8923 48.9705 50.2709 48.9705 51.7362V53.5657C48.9705 54.1708 48.8944 54.3963 48.7019 54.5628L44.8137 49.7715C44.4817 49.9532 44.24 50.4365 44.24 50.9503C44.24 51.3137 44.3546 51.6914 44.6213 52.0083L45.8986 53.4753C44.6616 54.1556 44.3304 55.2592 44.3304 56.6197V59.159C45.0939 59.159 46.1778 58.6014 46.1778 57.3304V55.4257C46.1778 55.4105 46.1778 55.3961 46.1778 55.3657C46.1778 55.124 46.1904 54.4885 46.5099 54.263L50.4348 59.1599C50.6666 58.886 50.9083 58.4179 50.9083 57.8889Z" fill="white"/>
<path fill-rule="evenodd" clip-rule="evenodd" d="M58.7008 57.2381V53.9738C58.7008 51.7066 57.019 49.9236 54.5718 49.9236C53.6016 49.9236 52.7092 50.1796 52.1489 50.5134C52.2634 50.9216 52.6465 51.2984 53.0278 51.2984C53.0914 51.2984 53.1558 51.2984 53.2059 51.2823C53.5371 51.1776 53.845 51.1015 54.1887 51.1015C55.9878 51.1015 56.8149 52.2195 56.8149 54.3068V59.1437C57.8093 59.1437 58.7008 58.6452 58.7008 57.2381ZM54.2639 57.2999V54.987C54.2639 54.2307 53.8056 53.853 53.3483 53.853C52.8757 53.853 52.404 54.245 52.404 54.987V59.1446C53.4503 59.1437 54.2639 58.6452 54.2639 57.2999Z" fill="white"/>
<path d="M55.9592 16.7951C59.5279 14.6541 63.229 12.7002 67.0259 10.978C96.2841 -2.29145 120 3.28666 120 23.4375C120 32.3659 115.345 42.6565 107.612 52.5023C113.535 43.761 116.988 34.9177 116.988 27.0876C116.988 6.02379 92.0048 0.280996 61.1874 14.2594C59.4214 15.0587 57.6778 15.9045 55.9592 16.7951Z" fill="#144A92"/>
<path d="M64.0435 85.2566C60.474 87.4003 56.7719 89.3525 52.9759 91.0746C23.7186 104.344 0 98.766 0 78.6152C0 69.6868 4.65797 59.3961 12.3852 49.5503C6.46781 58.2907 3.01282 67.1349 3.01282 74.965C3.01282 96.0289 27.9953 101.772 58.8154 87.7924C60.5778 86.9949 62.3214 86.1472 64.0435 85.2566Z" fill="#144A92"/>
</svg>
