<svg width="70" height="14" viewBox="0 0 70 14" fill="none" xmlns="http://www.w3.org/2000/svg">
<mask id="mask0_0_527" style="mask-type:alpha" maskUnits="userSpaceOnUse" x="0" y="0" width="14" height="14">
<path fill-rule="evenodd" clip-rule="evenodd" d="M0 0.422607H13.268V13.5776H0V0.422607Z" fill="white"/>
</mask>
<g mask="url(#mask0_0_527)">
<rect y="0.422607" width="13.268" height="13.155" rx="1.81144" fill="#734EE1"/>
<path fill-rule="evenodd" clip-rule="evenodd" d="M2.14627 4.153H4.48768V1.79688H2.14627V4.153Z" fill="white"/>
<path fill-rule="evenodd" clip-rule="evenodd" d="M5.46329 5.13469H7.8047V2.77856H5.46329V5.13469Z" fill="white"/>
<path fill-rule="evenodd" clip-rule="evenodd" d="M3.12186 7.49113H5.46327V5.13501H3.12186V7.49113Z" fill="white"/>
<path fill-rule="evenodd" clip-rule="evenodd" d="M7.80469 9.84709H10.1461V7.49097H7.80469V9.84709Z" fill="white"/>
<path fill-rule="evenodd" clip-rule="evenodd" d="M7.80469 5.13469H10.1461V2.77856H7.80469V5.13469Z" fill="white"/>
<path fill-rule="evenodd" clip-rule="evenodd" d="M5.46329 9.84709H7.8047V7.49097H5.46329V9.84709Z" fill="white"/>
<path fill-rule="evenodd" clip-rule="evenodd" d="M3.12186 12.2033H5.46327V9.84717H3.12186V12.2033Z" fill="white"/>
<path fill-rule="evenodd" clip-rule="evenodd" d="M7.80469 7.49113H10.1461V5.13501H7.80469V7.49113Z" fill="white"/>
<path fill-rule="evenodd" clip-rule="evenodd" d="M3.12186 9.84709H5.46327V7.49097H3.12186V9.84709Z" fill="white"/>
</g>
<path fill-rule="evenodd" clip-rule="evenodd" d="M70 10.2877V11.9928H62.8597V2.81104H69.8291V4.51616H64.9808V6.51018H69.2623V8.16291H64.9808V10.2877H70ZM54.8276 2.81104H56.9411V10.2613H61.5212V11.9928H54.8276V2.81104ZM49.0223 7.73797C49.6792 7.73797 50.1786 7.59285 50.5209 7.30262C50.8627 7.01238 51.0341 6.59987 51.0341 6.06554C51.0341 5.52135 50.8627 5.10481 50.5209 4.81412C50.1786 4.52389 49.6792 4.37877 49.0223 4.37877H47.2408V7.73797H49.0223ZM49.242 2.81104C50.0627 2.81104 50.7749 2.94675 51.3792 3.21772C51.9839 3.4887 52.4489 3.87344 52.7755 4.37194C53.1018 4.87045 53.2655 5.46077 53.2655 6.14291C53.2655 6.8161 53.1018 7.40418 52.7755 7.90716C52.4489 8.4097 51.9839 8.79489 51.3792 9.06138C50.7749 9.32788 50.0627 9.46135 49.242 9.46135H47.3761V11.9928H45.2327V2.81104H49.242ZM41.4394 6.05837C41.4394 5.51687 41.2681 5.10167 40.9262 4.81233C40.5839 4.52344 40.0846 4.37877 39.4277 4.37877H37.6462V7.73797H39.4277C40.0846 7.73797 40.5839 7.59106 40.9262 7.29769C41.2681 7.00387 41.4394 6.59091 41.4394 6.05837ZM41.1931 11.9928L39.4438 9.43537H37.5137V11.9928H35.4149V2.81104H39.3402C40.1435 2.81104 40.841 2.94675 41.4328 3.21772C42.0245 3.4887 42.4802 3.87344 42.7997 4.37194C43.1192 4.87045 43.279 5.46077 43.279 6.14291C43.279 6.82505 43.117 7.41314 42.793 7.90716C42.469 8.40119 42.0094 8.77921 41.4131 9.04168L43.4477 11.9928H41.1931ZM29.2782 12.2168C27.976 12.2168 26.9625 11.8513 26.2378 11.1203C25.513 10.3894 25.1502 9.3458 25.1502 7.98958V2.81104H27.2602V7.9103C27.2602 9.56616 27.9372 10.3939 29.2911 10.3939C29.9512 10.3939 30.4546 10.1937 30.8018 9.79279C31.149 9.39193 31.323 8.76443 31.323 7.9103V2.81104H33.4066V7.98958C33.4066 9.3458 33.0438 10.3894 32.3191 11.1203C31.5939 11.8513 30.5804 12.2168 29.2782 12.2168ZM19.5689 7.73797C20.2258 7.73797 20.7252 7.59285 21.0675 7.30262C21.4093 7.01238 21.5802 6.59987 21.5802 6.06554C21.5802 5.52135 21.4093 5.10481 21.0675 4.81412C20.7252 4.52389 20.2258 4.37877 19.5689 4.37877H17.787V7.73797H19.5689ZM19.5653 2.81107C20.386 2.81107 21.0982 2.94678 21.7025 3.21776C22.3071 3.48873 22.7722 3.87347 23.0988 4.37198C23.425 4.87048 23.5884 5.46081 23.5884 6.14295C23.5884 6.81613 23.425 7.40422 23.0988 7.9072C22.7722 8.40974 22.3071 8.79492 21.7025 9.06142C21.0982 9.32792 20.386 9.46139 19.5653 9.46139H17.6994V11.9929H15.5556V2.81107H19.5653Z" fill="#734EE1"/>
<mask id="mask1_0_527" style="mask-type:alpha" maskUnits="userSpaceOnUse" x="0" y="0" width="14" height="14">
<path fill-rule="evenodd" clip-rule="evenodd" d="M-9.15527e-05 0.422607H13.2679V13.5776H-9.15527e-05V0.422607Z" fill="white"/>
</mask>
<g mask="url(#mask1_0_527)">
<rect x="-9.15527e-05" y="0.422607" width="13.268" height="13.155" rx="1.81144" fill="#734EE1"/>
<path fill-rule="evenodd" clip-rule="evenodd" d="M2.14627 4.153H4.48768V1.79688H2.14627V4.153Z" fill="white"/>
<path fill-rule="evenodd" clip-rule="evenodd" d="M5.46327 5.13466H7.80467V2.77854H5.46327V5.13466Z" fill="white"/>
<path fill-rule="evenodd" clip-rule="evenodd" d="M3.12184 7.49092H5.46325L5.46327 5.13466L3.12184 5.1348V7.49092Z" fill="white"/>
<path fill-rule="evenodd" clip-rule="evenodd" d="M7.80469 9.84696H10.1461V7.49084H7.80469V9.84696Z" fill="white"/>
<path fill-rule="evenodd" clip-rule="evenodd" d="M7.80467 5.13466H10.1461V2.77854H7.80467V5.13466Z" fill="white"/>
<path fill-rule="evenodd" clip-rule="evenodd" d="M5.46327 9.84696H7.80469V7.49084L5.46325 7.49092L5.46327 9.84696Z" fill="white"/>
<path fill-rule="evenodd" clip-rule="evenodd" d="M3.12184 12.2032H5.46325L5.46327 9.84696L3.12184 9.8471V12.2032Z" fill="white"/>
<path fill-rule="evenodd" clip-rule="evenodd" d="M7.80469 7.49084H10.1461V5.13466H7.80467L7.80469 7.49084Z" fill="white"/>
<path fill-rule="evenodd" clip-rule="evenodd" d="M3.12184 9.8471L5.46327 9.84696L5.46325 7.49092H3.12184V9.8471Z" fill="white"/>
</g>
</svg>
