<svg width="120" height="120" viewBox="0 0 120 120" fill="none" xmlns="http://www.w3.org/2000/svg">
<ellipse cx="60" cy="60" rx="33.1456" ry="51.7072" transform="rotate(45 60 60)" fill="#DED4B3"/>
<path d="M44.8058 75.7293C41.9224 75.8541 38.7882 74.8553 37.5764 74.3558L26.8367 80.8902L29.9709 69.6944C23.9533 65.6988 20.1506 59.7055 20.1506 52.9215C20.1506 40.9765 32.1857 31.2791 47.0206 31.2791C61.8555 31.2791 73.1384 40.3938 73.8489 51.8394C73.5563 51.8394 73.222 51.8394 72.9295 51.8394C60.5601 51.8394 50.489 59.9969 50.489 70.0273C50.489 71.5256 50.698 72.9823 51.1159 74.3558C53.4978 82.3052 62.357 88.2153 72.8877 88.2153C75.1443 88.2153 77.3173 87.9656 79.3649 87.4245L89.8539 93.6675L86.9705 84.1365C92.0269 80.8069 95.2864 75.6877 95.2864 69.9857C95.2864 62.4941 89.7285 56.0846 81.7469 53.2961" stroke="#898371" stroke-width="1.5" stroke-linecap="round" stroke-linejoin="round"/>
</svg>
